#!OML:ASF F:\VICON\USERDATA\INSTALL\rory3\rory3.ASF
:FULLY-SPECIFIED
:DEGREES
54
root 0.15709355220722485 17.844233245508384 10.046699753701716 0.2884140481867419 -0.6857696677195266 -2.04795017739015
lfemur -12.3089004610165 -1.2336590861101353 -20.22053964418422
ltibia 42.540699184563344
lfoot -2.550694320402547 -5.201620675140319
ltoes -7.224429598178471
rfemur -14.79238533341973 3.0472157182279336 27.151656419189845
rtibia 48.67909043182489
rfoot -2.244708467937774 -6.8120969024872755
rtoes 3.382601272261963
lowerback 12.436992241656837 0.5454702412735676 1.2267823623075078
upperback -0.24780486632951132 1.0068619985992422 1.5339599499512262
thorax -7.109174526060759 0.47088603796613576 0.7861633835581392
lowerneck -17.69339935988256 -3.452152527890677 -2.045954051943627
upperneck 17.488095176126446 -4.532134053196871 1.9081513994406893
head 8.488092077453196 -2.096125837895427 0.40614832360648817
lclavicle -7.483091021772288e-16 -6.45388417581783e-16
lhumerus -39.03593189231771 -2.584641082591423 86.96595899518337
lradius 61.55285638086456
lwrist 16.896543460774897
lhand -27.9241045195798 13.40594440659317
lfingers 7.125020000000057
lthumb -1.3124221867145898 43.35900633226773
rclavicle -7.483091021772288e-16 -6.45388417581783e-16
rhumerus -37.51777252060063 -6.490362213241879 -85.91618345624599
rradius 62.14794892078397
rwrist -4.228583385201735
rhand -17.98134002077162 29.752057145628658
rfingers 7.125020000000057
rthumb 8.288081005879 -0.058991539407067264
55
root 0.15720057776960428 17.844301105588375 10.050345804849048 0.2889716406227027 -0.6851801075163466 -2.047402005709513
lfemur -12.30605052785003 -1.2330414314048967 -20.21948632132441
ltibia 42.5446979834808
lfoot -2.5484973552033487 -5.2003833627987
ltoes -7.222935930297691
rfemur -14.789518160706395 3.0478824992735345 27.15268093265181
rtibia 48.68331710417699
rfoot -2.242444373319293 -6.811275694423571
rtoes 3.384329542783294
lowerback 12.437441361262254 0.545706854182921 1.2274009374280566
upperback -0.2476742359417373 1.0072414964642686 1.5341338155219568
thorax -7.108851044961835 0.4710525092617016 0.7865574195427126
lowerneck -17.69306468991688 -3.4519726167272458 -2.0458558249567202
upperneck 17.488927697155884 -4.531862511999707 1.9084514214316388
head 8.488325040623893 -2.0960119485736217 0.40624380281896216
lclavicle -7.449119264394069e-16 -6.427579745928921e-16
lhumerus -39.03368245485038 -2.583235761719651 86.96711536179089
lradius 61.55953799020836
lwrist 16.898793016713576
lhand -27.92359926022254 13.407659871801332
lfingers 7.125020000000058
lthumb -1.3119342816792907 43.36072206156574
rclavicle -7.449119264394069e-16 -6.427579745928921e-16
rhumerus -37.51569439025513 -6.487719936569642 -85.9144782571613
rradius 62.15452671133248
rwrist -4.226683230968727
rhand -17.981066608022143 29.753463299871193
rfingers 7.125020000000058
rthumb 8.288344870294472 -0.05758585530198254
56
root 0.15726084586471953 17.844339318868126 10.052398964416323 0.28928563134808555 -0.6848481151435765 -2.0470933199875825
lfemur -12.304445677201919 -1.2326936184927653 -20.21889317552923
ltibia 42.546949781912375
lfoot -2.5472602030254348 -5.199686609086465
ltoes -7.222094817988556
rfemur -14.787903602147138 3.048257976146385 27.15325785533644
rtibia 48.68569722239992
rfoot -2.241169419310336 -6.8108132568096735
rtoes 3.385302764225431
lowerback 12.437694268908759 0.5458400953358695 1.227749268643257
upperback -0.24760067552812887 1.0074551988071196 1.5342317224754087
thorax -7.10866888670726 0.47114625236056573 0.7867793085724839
lowerneck -17.692876231002252 -3.4518713053875163 -2.045800511503951
upperneck 17.48939650531229 -4.5317096020748755 1.9086203694239239
head 8.488456226540771 -2.0959478153672495 0.40629756894857627
lclavicle -7.429989132681762e-16 -6.412767229673445e-16
lhumerus -39.03241575455726 -2.5824443992630157 86.9677665334469
lradius 61.56330052934857
lwrist 16.900059783720124
lhand -27.92331473923219 13.408625882332217
lfingers 7.125020000000058
lthumb -1.311659533232089 43.36168822081056
rclavicle -7.429989132681762e-16 -6.412767229673445e-16
rhumerus -37.51452415620505 -6.48623202117576 -85.91351802767649
rradius 62.15823078816807
rwrist -4.225613218595023
rhand -17.980912644191218 29.754255131614485
rfingers 7.125020000000058
rthumb 8.288493457280007 -0.05679428830187769
57
root 0.15720968045634834 17.84430687719132 10.050655907040609 0.28901906470684263 -0.6851299645250183 -2.0473553828749314
lfemur -12.305808136702726 -1.2329888989334685 -20.219396734614282
ltibia 42.54503808740634
lfoot -2.548310499974081 -5.200278127503506
ltoes -7.222808891574267
rfemur -14.78927430330943 3.0479392100148757 27.152768069078864
rtibia 48.683676589084484
rfoot -2.2422518086308885 -6.8112058494296335
rtoes 3.3844765348178596
lowerback 12.437479559567292 0.5457269784704796 1.2274535481822058
upperback -0.24766312562871742 1.007273773334472 1.5341486030529985
thorax -7.1088235324027265 0.4710666678984023 0.7865909329020794
lowerneck -17.69303622572765 -3.4519573150093565 -2.0458474706021925
upperneck 17.488998504334752 -4.531839417008183 1.9084769387579599
head 8.488344854495633 -2.0960022621137067 0.40625192347109795
lclavicle -7.446229914796797e-16 -6.425342514187866e-16
lhumerus -39.033491136774956 -2.5831162370436185 86.96721371252838
lradius 61.56010627123815
lwrist 16.898984344865166
lhand -27.923556287146283 13.40780577472455
lfingers 7.125020000000058
lthumb -1.3118927846144919 43.360867986950204
rclavicle -7.446229914796797e-16 -6.425342514187866e-16
rhumerus -37.51551764211078 -6.487495206922782 -85.9143332273875
rradius 62.155086162415934
rwrist -4.226521619963244
rhand -17.981043353852254 29.753582895426675
rfingers 7.125020000000058
rthumb 8.288367312364045 -0.05746629973240454
